<?xml version="1.0" encoding="UTF-8"?>
<svg id="Camada_1" data-name="Camada 1" xmlns="http://www.w3.org/2000/svg" viewBox="0 0 125 44">
  <defs>
    <style>
      .cls-1 {
        fill: #1b4e43;
      }

      .cls-2 {
        fill: #be9448;
      }
    </style>
  </defs>
  <rect class="cls-1" y="0" width="125" height="44"/>
  <g>
    <g>
      <path class="cls-2" d="m40.28,29.6c.13,0,.25,0,.38.03.13.02.24.06.32.09.02,0,.03.03.05.03v.06l.05.44h-.03c-.06-.21-.17-.36-.33-.46s-.35-.14-.57-.14c-.21,0-.38.05-.52.13-.14.09-.27.21-.35.36s-.13.35-.13.55c0,.19.03.36.08.52.06.16.14.3.24.43.11.13.22.22.36.28s.28.11.43.11c.19,0,.35-.05.49-.16.14-.09.25-.27.33-.47h.03s.02,0,.02,0l-.05.44s0,.05-.02.06c0,0-.02.02-.05.03-.13.05-.25.09-.38.11s-.25.03-.38.03c-.25,0-.46-.03-.65-.11s-.33-.17-.44-.3-.19-.27-.25-.43c-.05-.16-.08-.3-.08-.46,0-.19.03-.36.11-.51.08-.16.19-.28.32-.4.14-.11.28-.19.46-.25s.35-.09.54-.09l.03.05Z"/>
      <path class="cls-2" d="m43.51,32.15c-.19,0-.36-.03-.51-.09-.16-.06-.28-.16-.4-.28-.11-.11-.19-.25-.25-.41s-.09-.32-.09-.49c0-.21.05-.4.13-.55s.19-.3.33-.4c.14-.11.28-.19.44-.24.16-.05.33-.08.49-.08.19,0,.36.03.52.11.16.06.28.16.4.28.11.11.19.25.25.4s.08.3.08.46c0,.19-.03.35-.11.51s-.17.3-.3.41c-.13.11-.27.21-.44.28-.17.06-.35.09-.52.09h-.02Zm.14-.08c.17,0,.33-.05.47-.13.14-.08.25-.21.33-.38.08-.16.13-.36.13-.6s-.05-.46-.14-.65-.22-.33-.38-.44c-.17-.11-.36-.16-.59-.16-.28,0-.52.09-.68.28s-.24.44-.24.76c0,.19.03.36.08.52s.13.3.22.43c.09.13.21.22.35.28.13.06.28.09.44.09v-.02Z"/>
      <path class="cls-2" d="m46.34,31.68l.03-1.95h.09l-.03,1.95c0,.14.02.24.06.3s.14.09.27.09v.03h-.74v-.03c.11,0,.19-.03.24-.09s.08-.16.08-.3Zm2.74.38v.03h-.9v-.03c.13,0,.22-.02.25-.05s.05-.11.05-.22l-.08-1.9.13-.17-1.03,2.37h-.06l-1-2.11c-.09-.19-.22-.28-.4-.28v-.03h.46s.06,0,.08.03c.02.02.05.08.09.17l.9,1.9-.13.21.97-2.2s.03-.06.05-.08.05-.03.06-.03h.47v.03c-.13,0-.22.02-.28.05s-.09.11-.08.22l.08,1.82s0,.13.03.17.05.06.09.08c.05,0,.13.02.22.02h.02Z"/>
      <path class="cls-2" d="m50.71,31.77s0,.14.03.17c.02.05.06.06.13.08s.17.02.3.02v.03h-1.06v-.03c.09,0,.17,0,.22-.02.05,0,.08-.03.09-.08.02-.03.02-.09.02-.17v-1.82s0-.13-.02-.17c0-.03-.05-.06-.09-.08s-.13-.02-.22-.02v-.03h1.01c.14,0,.28.02.41.06.13.05.22.11.28.21s.11.22.11.36-.03.25-.08.36-.13.17-.21.25c-.08.06-.17.11-.28.14-.09.03-.21.05-.3.05h-.19v-.03s0-.03.02-.02h.14c.11,0,.21-.02.3-.06.09-.05.17-.13.22-.22s.08-.22.08-.36-.03-.27-.08-.36-.13-.17-.22-.22-.19-.08-.3-.08h-.21s-.08.03-.09.08c-.02.03-.03.11-.03.19v1.8l.02-.03Z"/>
      <path class="cls-2" d="m53.99,29.64c.22,0,.38.05.49.13.11.09.17.21.17.36,0,.09-.02.19-.06.28-.05.09-.11.16-.17.24-.08.06-.16.13-.27.16-.09.03-.21.06-.32.06h-.19v.93s0,.13.02.17c0,.03.05.06.09.08.05,0,.13.02.22.02v.03h-.93v-.03c.09,0,.17,0,.22-.02.05,0,.08-.03.09-.08.02-.03.03-.09.03-.17v-1.82s0-.13-.03-.17-.05-.06-.09-.08-.13-.02-.22-.02v-.03h.93l.02-.05Zm.4.63c0-.14-.02-.25-.06-.35s-.09-.14-.17-.17c-.06-.03-.16-.05-.24-.05h-.16s-.06.03-.08.08c0,.03-.02.09-.02.19v.78h.22c.17,0,.32-.03.4-.11s.11-.21.11-.4v.03Zm.68,1.85s-.11-.05-.22-.16c-.09-.11-.22-.25-.36-.46-.14-.19-.3-.43-.47-.7l.22-.06c.22.33.41.59.57.79s.3.33.41.41c.13.08.24.13.35.13v.03h-.51l.02.02Z"/>
      <path class="cls-2" d="m59.07,32.06v.03h-.87v-.03c.14,0,.22-.02.25-.06.03-.05.03-.11-.03-.24l-.87-1.85.09-.13-.76,1.8c-.06.16-.06.27,0,.35.06.06.17.11.35.11,0,0,.02,0,.02.02s0,.02-.02.02h-.9v-.03c.06,0,.13,0,.19-.05s.09-.08.14-.14.09-.17.16-.3l.84-1.96h.03s.02,0,.02,0l.93,1.96c.06.13.11.22.16.3s.09.13.14.14.09.05.16.05l-.03.02Zm-1.92-1.25l.06-.08h.81l.03.08h-.9Z"/>
      <path class="cls-2" d="m62.79,32.12h-1.08v-.03c.09,0,.17,0,.22-.02.05,0,.08-.03.09-.08s.02-.09.02-.17v-1.82s0-.13-.02-.17-.05-.06-.09-.08-.13-.02-.22-.02v-.03h1c.28,0,.52.05.73.16.21.11.36.25.49.43.11.17.17.38.17.62,0,.19-.03.38-.11.54-.06.16-.17.3-.28.41-.13.11-.27.19-.43.25-.16.06-.33.09-.51.09l.02-.08Zm-.03-.06c.21,0,.4-.05.55-.13.16-.09.28-.22.38-.4s.14-.38.14-.62c0-.22-.05-.44-.13-.62-.08-.19-.21-.33-.36-.44s-.35-.16-.55-.16c-.16,0-.27,0-.33.05s-.09.11-.09.22v1.77c0,.11.03.19.08.24s.17.08.35.08h-.03Z"/>
      <path class="cls-2" d="m66.92,32.11h-1.65v-.03c.09,0,.17,0,.22-.02.05,0,.08-.03.09-.08.02-.03.03-.09.03-.17v-1.82s0-.13-.03-.17c-.02-.03-.05-.06-.09-.08s-.13-.02-.22-.02v-.03h1.58s.03,0,.03.03v.49h-.02c0-.14-.05-.25-.13-.33-.08-.08-.17-.11-.3-.11h-.24c-.09,0-.16,0-.21.02s-.08.03-.09.08c-.02.03-.03.09-.03.16v1.79s0,.13.03.16.05.06.09.08c.05,0,.11.02.19.02h.32c.13,0,.24-.05.32-.14s.14-.21.17-.36h.03c0,.06-.02.16-.03.25v.27s-.02.06-.06.06l-.02-.03Zm-.22-.92c0-.11-.03-.21-.08-.25-.06-.05-.16-.08-.28-.08h-.59v-.08h.6c.13,0,.22-.02.27-.06.05-.05.08-.11.08-.21h.03v.7h-.03v-.02Z"/>
      <path class="cls-2" d="m70.51,31.85c0,.16,0,.28-.03.41s-.05.21-.09.28c-.05.08-.09.14-.17.21s-.17.11-.28.16h-.02v-.03c.14-.08.22-.19.27-.35.05-.16.06-.33.06-.57v-1.99s0-.13-.03-.17-.05-.06-.09-.08-.13-.02-.22-.02v-.03h.89v.03c-.13,0-.21.02-.24.05s-.05.11-.05.22v1.87l.02.02Z"/>
      <path class="cls-2" d="m73.2,32.15c-.19,0-.36-.03-.51-.09-.16-.06-.28-.16-.4-.28-.11-.11-.19-.25-.25-.41s-.09-.32-.09-.49c0-.21.05-.4.13-.55s.19-.3.33-.4c.14-.11.28-.19.44-.24.16-.05.33-.08.49-.08.19,0,.36.03.52.11.16.06.28.16.4.28.11.11.19.25.25.4s.08.3.08.46c0,.19-.03.35-.11.51s-.17.3-.3.41c-.13.11-.27.21-.44.28-.17.06-.35.09-.52.09h-.02Zm.14-.08c.17,0,.33-.05.47-.13.14-.08.25-.21.33-.38.08-.16.13-.36.13-.6s-.05-.46-.14-.65-.22-.33-.38-.44c-.17-.11-.36-.16-.59-.16-.28,0-.52.09-.68.28s-.24.44-.24.76c0,.19.03.36.08.52s.13.3.22.43c.09.13.21.22.35.28.13.06.28.09.44.09v-.02Zm-.44-2.64h-.02v-.03c.13-.06.24-.13.33-.19.09-.06.21-.13.3-.19h.06s.06.02.09.03c.03.02.06.03.08.05.02,0,.02.02,0,.02-.17.05-.33.09-.47.14s-.27.11-.41.16l.03.02Z"/>
      <path class="cls-2" d="m76.35,31.79s0,.13.02.17.05.06.09.08c.05,0,.13.02.22.02v.03h-.93v-.03c.09,0,.17,0,.22-.02.05,0,.08-.03.09-.08s.02-.09.02-.17v-1.82s0-.13-.02-.17-.05-.06-.09-.08-.13-.02-.22-.02v-.03h.93v.03c-.09,0-.17,0-.22.02-.05,0-.08.05-.09.08,0,.03-.02.09-.02.17v1.82Z"/>
      <path class="cls-2" d="m80.42,32.06v.03h-.87v-.03c.14,0,.22-.02.25-.06.03-.05.03-.11-.03-.24l-.87-1.85.09-.13-.76,1.8c-.06.16-.06.27,0,.35.06.06.17.11.35.11,0,0,.02,0,.02.02s0,.02-.02.02h-.9v-.03c.06,0,.13,0,.19-.05s.09-.08.14-.14.09-.17.16-.3l.84-1.96h.03s.02,0,.02,0l.93,1.96c.06.13.11.22.16.3s.09.13.14.14.09.05.16.05l-.03.02Zm-1.92-1.25l.06-.08h.81l.03.08h-.9Z"/>
      <path class="cls-2" d="m81.8,30.11c0,.11.03.21.08.28s.13.14.21.21.17.11.27.17c.09.05.19.11.28.17s.16.14.22.22.09.19.09.32-.03.24-.09.35c-.06.09-.16.19-.27.24-.13.06-.27.09-.44.09h-.19c-.06,0-.13-.03-.19-.05-.06-.02-.13-.05-.19-.08l-.03-.03s0-.03,0-.05l-.05-.54s0-.02.02-.02h.03c.02.08.05.16.08.24s.08.16.13.22c.05.06.13.13.21.16s.17.06.27.06c.08,0,.16,0,.22-.05.08-.03.13-.08.17-.14s.06-.16.06-.27c0-.13-.03-.24-.08-.32-.06-.08-.13-.16-.22-.22-.08-.06-.17-.13-.27-.17-.09-.06-.17-.11-.27-.17-.08-.06-.16-.13-.21-.22-.05-.08-.08-.19-.08-.32,0-.14.03-.25.11-.35.06-.09.16-.16.27-.21s.24-.06.35-.06c.08,0,.14,0,.22.02.08,0,.16.03.24.08.02,0,.03.02.05.03v.03l.03.44s0,.02-.02.02h-.03s-.02-.11-.05-.17c-.02-.06-.06-.13-.09-.19-.05-.06-.09-.11-.17-.14s-.16-.05-.25-.05-.19.02-.25.06c-.06.05-.11.09-.14.16s-.05.14-.05.22l.03.02Z"/>
    </g>
    <g>
      <path class="cls-2" d="m22.56,26.6c-.52,0-1.16-.02-1.88-.03h-4.48c-.73,0-1.36.02-1.88.03v-.38c.32,0,.57-.02.78-.08.21-.05.35-.14.46-.27.11-.13.19-.3.24-.54.05-.22.06-.52.06-.9v-7.76c0-.33-.03-.62-.08-.82s-.13-.36-.25-.47c-.11-.11-.27-.17-.47-.21-.21-.03-.44-.05-.74-.06v-.41c.19.02.47.03.85.05h2.39c.38,0,.7-.02.92-.05v.41c-.32,0-.57.03-.78.06s-.36.11-.47.22-.19.25-.24.46c-.05.21-.06.47-.06.81v7.76c0,.36.03.65.11.87s.22.38.43.51c.21.11.52.19.92.24s.92.06,1.55.06c.46,0,.85-.03,1.17-.08.32-.05.59-.16.81-.32.21-.16.4-.38.54-.65s.28-.62.41-1.06h.35l-.63,2.6v.02Z"/>
      <g>
        <path class="cls-2" d="m104.5,23.08s-.03.11-.05.16c-.19.65-.47,1.2-.85,1.66-.36.46-.82.82-1.38,1.09-.54.25-1.17.4-1.87.4-.82,0-1.52-.19-2.11-.59-.59-.38-1.09-.89-1.47-1.49-.38-.6-.66-1.27-.85-1.98s-.28-1.41-.28-2.06c0-.76.11-1.47.32-2.11.21-.65.51-1.2.89-1.66.4-.46.85-.82,1.39-1.09s1.12-.4,1.79-.4c.81,0,1.5.19,2.11.59.6.4,1.09.89,1.47,1.49.17.27.32.55.46.84h1.33c-.28-.59-.63-1.11-1.06-1.57-.52-.55-1.14-1.01-1.85-1.35-.7-.33-1.44-.51-2.23-.51-.87,0-1.66.17-2.37.54s-1.33.84-1.85,1.41c-.51.59-.9,1.27-1.19,2.01s-.43,1.5-.43,2.3.16,1.61.46,2.34c.3.74.71,1.39,1.25,1.95.52.55,1.12,1.01,1.84,1.33.7.33,1.46.49,2.25.49.85,0,1.65-.17,2.36-.54.71-.35,1.33-.82,1.84-1.42.49-.54.87-1.17,1.16-1.87h-1.03l-.02.03Z"/>
        <g>
          <g>
            <path class="cls-2" d="m105.4,22.31h-.02l-1.9-2.41v-.03l.62-.84h0l.7-.19h0l1.38.05h0l.7.24h0l.57.87v.03l-2.04,2.3h-.02l.02-.02Zm-1.87-2.44l1.87,2.37,2.01-2.26-.55-.85-.68-.24-1.36-.05-.7.19-.6.82.02.02Z"/>
            <path class="cls-2" d="m105.5,19.5h-.35l-1.03-.43s-.02-.02,0-.03c0,0,.02-.02.03,0l1.01.43h.35s.03.02.03.03,0,.03-.03.03l-.02-.03Z"/>
            <path class="cls-2" d="m103.5,19.9s-.03,0-.03-.03c0,0,0-.03.03-.03h.54l-.24-.41v-.03h.03l.24.43.35-.66h.03l.3.7.33-.41h.05l.33.46v.03h-.02l-1.98-.05h0l.03.02Zm.95-.66l-.33.63h.6l-.28-.63h.02Zm.68.27l-.3.38h.59l-.28-.38Z"/>
            <path class="cls-2" d="m105.13,21.28h-.02l-1.04-1.36v-.03h.03l1.04,1.36v.03h-.02Z"/>
            <path class="cls-2" d="m105.13,21.28h0s-.02-.02-.02-.03l.35-1.33s.02-.02.03-.02c0,0,.02.02.02.03l-.35,1.33s0,.02-.03.02Z"/>
            <path class="cls-2" d="m105.84,19.5h-.35s-.03-.02-.03-.03,0-.03.03-.03h.35l1.04-.36h.03v.03l-1.04.36h0l-.03.03Z"/>
            <path class="cls-2" d="m107.44,20.01h0l-1.98-.06h-.02v-.03l.36-.44h.05l.32.43.35-.68h.03l.3.68.27-.41h.03v.03l-.27.41h.54s.03.03.03.05c0,0,0,.03-.03.03h.02Zm-1.23-.09h.6l-.28-.63-.32.63Zm-.68-.02h.59l-.28-.38-.3.38Z"/>
            <path class="cls-2" d="m105.73,21.29h-.02v-.03l1.12-1.3h.03v.03l-1.12,1.3h-.02Z"/>
            <path class="cls-2" d="m105.73,21.29s-.02,0-.03-.02l-.27-1.35s0-.03.02-.03c0,0,.03,0,.03.02l.27,1.35s0,.03-.02.03h0Z"/>
            <path class="cls-2" d="m105.4,22.31s-.02,0-.03-.02l-.62-2.37s0-.03.02-.03c0,0,.03,0,.03.02l.6,2.3.73-2.25s.02-.02.03-.02c0,0,.02.02.02.03l-.76,2.34s0,.02-.03.02l.02-.02Z"/>
          </g>
          <path class="cls-2" d="m105.15,19.49h-.02l-.3-.6-.33.32h-.03v-.03l.36-.35h.03l.3.59.35-.57s.02-.02.03,0c0,0,.02.02,0,.03l-.36.6h-.02l-.02.02Z"/>
          <path class="cls-2" d="m105.84,19.5h-.02l-.33-.63v-.03h.03l.3.59.33-.57h.03l.33.36v.03h-.03l-.32-.33-.35.59h-.02.03Z"/>
        </g>
      </g>
      <path class="cls-2" d="m41.4,20.98v3.51c0,.35.02.63.06.85.03.22.11.4.22.52s.27.22.47.27.47.08.81.08v.4c-.21,0-.51-.02-.89-.02h-2.39c-.38,0-.68,0-.89.02v-.38c.3,0,.55-.02.76-.06.19-.03.35-.11.47-.24.11-.13.21-.3.25-.54.05-.22.08-.54.08-.92v-7.79c0-.33-.03-.59-.08-.79s-.13-.36-.25-.47c-.11-.11-.27-.17-.47-.22-.21-.03-.44-.06-.74-.08v-.41c.27,0,.6.02,1,.03h2.52c.41,0,.76,0,1.04-.03.71,0,1.31.11,1.79.32s.84.46,1.12.76c.27.3.46.63.57.98.11.35.17.66.17.95,0,.38-.06.73-.21,1.06-.13.32-.32.62-.54.87-.22.27-.47.49-.76.66-.28.17-.59.32-.89.4.21.35.44.73.71,1.14s.55.81.84,1.2.57.78.84,1.14.51.65.71.89c.25.32.54.59.84.81s.66.33,1.06.33v.4c-.38-.02-.76-.03-1.14-.03s-.73,0-1.08.03c-.3-.4-.63-.82-.97-1.31s-.68-.98-1.01-1.47c-.35-.51-.68-1.01-1.01-1.49-.32-.49-.62-.93-.89-1.33h-2.12l-.03-.03Zm0-.59c.13.03.32.05.59.06h.63c.59,0,1.09-.08,1.5-.24.41-.16.74-.36,1-.62.25-.24.44-.52.55-.84.11-.32.17-.63.17-.95,0-.36-.06-.7-.17-1.01s-.28-.59-.54-.82c-.24-.24-.55-.41-.95-.55-.4-.13-.87-.21-1.44-.21-.24,0-.49,0-.74.02s-.44.03-.6.06v5.1Z"/>
      <path class="cls-2" d="m52.48,16.62c0-.3-.02-.54-.06-.73-.05-.19-.11-.33-.22-.44s-.28-.19-.49-.24c-.21-.05-.47-.06-.81-.06v-.4h4.64c1.03,0,1.95.16,2.75.49.81.33,1.49.76,2.04,1.31s.98,1.19,1.28,1.88c.28.71.44,1.44.44,2.2s-.14,1.49-.41,2.2-.68,1.35-1.23,1.9c-.55.55-1.27,1.01-2.09,1.35-.84.33-1.82.51-2.96.51h-4.45v-.43c.33,0,.6-.02.81-.06.21-.03.36-.11.49-.24.11-.11.17-.28.22-.49s.06-.47.06-.81v-7.98l-.02.03Zm1.06,7.99c0,.33.03.59.08.79.05.19.16.35.3.46s.36.17.63.21c.27.03.63.05,1.06.05.92,0,1.71-.14,2.37-.44s1.22-.7,1.63-1.19c.43-.49.74-1.08.95-1.74.21-.66.3-1.36.3-2.09,0-.84-.13-1.58-.4-2.25s-.63-1.22-1.12-1.69c-.49-.46-1.09-.81-1.8-1.06-.7-.25-1.5-.38-2.39-.38h-.54c-.16,0-.32,0-.46.03-.14,0-.27.02-.38.03h-.27v9.29l.03-.02Z"/>
      <path class="cls-2" d="m66.86,20.12h2.39c.46,0,.79-.09.98-.3.19-.21.28-.59.28-1.16h.38v3.77h-.38c0-.33-.02-.62-.06-.82-.03-.21-.11-.38-.21-.49-.09-.13-.22-.21-.4-.25-.16-.05-.38-.06-.63-.06h-2.37v3.75c0,.33.03.62.08.82s.16.36.32.47c.14.11.36.19.63.24.27.03.62.06,1.06.06h1.09c.44,0,.81-.03,1.11-.09.3-.06.54-.17.74-.33s.36-.38.51-.65.27-.62.41-1.03h.41c-.08.21-.14.43-.22.65-.06.22-.14.43-.21.65s-.13.44-.17.66-.09.43-.14.65c-1.39-.02-2.79-.03-4.21-.03s-2.79,0-4.08.03v-.4c.66,0,1.11-.11,1.3-.33.21-.22.3-.66.3-1.33v-7.87c0-.33-.03-.59-.08-.79s-.14-.35-.27-.46c-.11-.09-.28-.16-.49-.21-.21-.03-.47-.06-.79-.06v-.41c1.27.03,2.58.05,3.93.05s2.61-.02,3.81-.05v2.52h-.33c-.05-.43-.11-.79-.19-1.06s-.21-.47-.4-.63c-.17-.14-.4-.24-.7-.28s-.68-.08-1.16-.08h-2.3v4.89l.05-.03Z"/>
      <g>
        <path class="cls-2" d="m83.16,26.88h-7.69c.17-.22.28-.47.35-.76.03-.17.05-.41.05-.71v-9.62c0-.3-.02-.54-.05-.7-.06-.3-.17-.55-.35-.78h2.83c-.35.54-.54,1.03-.54,1.47v9.47h3.64c.52,0,1.11-.16,1.74-.46v2.07l.02.02Zm-.24-.21v-1.54c-.51.21-1,.32-1.5.32h-3.88v-9.67c0-.43.13-.85.38-1.27h-2.03c.08.11.13.27.16.46.03.19.05.46.05.81v9.62c0,.32,0,.57-.03.74s-.08.35-.19.52c0,0,7.04,0,7.04,0Z"/>
        <path class="cls-2" d="m92.85,26.88h-7.69c.17-.22.28-.47.35-.76.03-.17.05-.41.05-.71v-9.62c0-.3-.02-.54-.05-.7-.06-.3-.17-.55-.35-.78h2.83c-.35.54-.54,1.03-.54,1.47v9.47h3.64c.52,0,1.11-.16,1.74-.46v2.07l.02.02Zm-.24-.21v-1.54c-.51.21-1,.32-1.5.32h-3.88v-9.67c0-.43.13-.85.38-1.27h-2.03c.08.11.13.27.16.46.03.19.05.46.05.81v9.62c0,.32,0,.57-.03.74s-.08.35-.19.52c0,0,7.04,0,7.04,0Z"/>
      </g>
      <path class="cls-2" d="m36.57,20.82c0,.78-.14,1.55-.43,2.3s-.68,1.42-1.2,1.99c-.51.59-1.12,1.06-1.84,1.42-.71.35-1.5.54-2.36.54-.79,0-1.54-.16-2.25-.49-.7-.33-1.31-.78-1.84-1.33s-.95-1.22-1.25-1.95c-.3-.74-.46-1.52-.46-2.34,0-.78.14-1.55.43-2.3s.68-1.41,1.19-2.01c.52-.59,1.14-1.06,1.85-1.41.71-.36,1.5-.54,2.37-.54.78,0,1.52.17,2.23.51.7.33,1.31.78,1.85,1.35.52.55.93,1.22,1.25,1.95.32.74.47,1.52.47,2.33l-.03-.02Zm-1.27.47c0-.65-.09-1.33-.28-2.04s-.47-1.38-.87-1.98c-.38-.6-.87-1.11-1.47-1.49-.6-.4-1.3-.59-2.11-.59-.65,0-1.25.13-1.79.4-.54.27-1,.63-1.39,1.09-.38.46-.68,1.03-.89,1.66-.21.65-.32,1.35-.32,2.11,0,.65.09,1.35.28,2.06s.47,1.38.85,1.98c.4.6.89,1.09,1.47,1.49.59.38,1.3.59,2.11.59.7,0,1.31-.13,1.87-.4.54-.25,1-.62,1.38-1.09.36-.46.65-1.03.85-1.66.19-.65.3-1.36.3-2.12Z"/>
    </g>
  </g>
</svg>