<svg width="48" height="48" viewBox="0 0 48 48" fill="none" xmlns="http://www.w3.org/2000/svg">
<rect x="1" y="1" width="46" height="46" rx="23" stroke="#bd9348" stroke-width="2"/>
<path d="M22.443 30.7785L12.5161 19.4318C11.3446 18.0967 12.2967 16 14.0747 16H33.9284C34.3263 15.9997 34.7159 16.114 35.0505 16.3294C35.3851 16.5448 35.6505 16.852 35.8149 17.2143C35.9794 17.5767 36.0359 17.9787 35.9778 18.3724C35.9196 18.766 35.7492 19.1345 35.487 19.4338L25.5601 30.7764C25.3658 30.9988 25.1263 31.177 24.8574 31.299C24.5886 31.4211 24.2968 31.4843 24.0015 31.4843C23.7063 31.4843 23.4145 31.4211 23.1457 31.299C22.8768 31.177 22.6372 30.9988 22.443 30.7764V30.7785Z" fill="#bd9348"/>
</svg>
